HIERARCHY
ROOT Hips
{
 OFFSET 0.000000 0.000000 0.000000
 CHANNELS 6 Xposition Yposition Zposition Yrotation Xrotation Zrotation
 JOINT Chest
 {
  OFFSET 0.000000 9.585900 0.002600
  CHANNELS 3 Yrotation Xrotation Zrotation
  JOINT Chest2
  {
   OFFSET 0.000000 9.601200 -0.005300
   CHANNELS 3 Yrotation Xrotation Zrotation
   JOINT Chest3
   {
    OFFSET 0.000000 9.561800 0.000000
    CHANNELS 3 Yrotation Xrotation Zrotation
    JOINT Chest4
    {
     OFFSET 0.000000 9.552100 0.000000
     CHANNELS 3 Yrotation Xrotation Zrotation
     JOINT Neck
     {
      OFFSET 0.000000 14.453000 0.000000
      CHANNELS 3 Yrotation Xrotation Zrotation
      JOINT Head
      {
       OFFSET 0.000000 8.936500 -0.011300
       CHANNELS 3 Yrotation Xrotation Zrotation
       End Site
       {
        OFFSET 0.000000 17.073600 -0.006000
       }
      }
     }
     JOINT RightCollar
     {
      OFFSET -2.921100 9.558500 0.000000
      CHANNELS 3 Yrotation Xrotation Zrotation
      JOINT RightShoulder
      {
       OFFSET -13.519700 0.000000 0.000000
       CHANNELS 3 Yrotation Xrotation Zrotation
       JOINT RightElbow
       {
        OFFSET 0.000000 -29.696600 0.000000
        CHANNELS 3 Yrotation Xrotation Zrotation
        JOINT RightWrist
        {
         OFFSET 0.000000 -24.004700 0.000000
         CHANNELS 3 Yrotation Xrotation Zrotation
         End Site
         {
          OFFSET 0.000000 -17.728500 0.000000
         }
        }
       }
      }
     }
     JOINT LeftCollar
     {
      OFFSET 2.921100 9.558500 0.000000
      CHANNELS 3 Yrotation Xrotation Zrotation
      JOINT LeftShoulder
      {
       OFFSET 13.519700 0.000000 0.000000
       CHANNELS 3 Yrotation Xrotation Zrotation
       JOINT LeftElbow
       {
        OFFSET 0.000000 -29.696600 0.000000
        CHANNELS 3 Yrotation Xrotation Zrotation
        JOINT LeftWrist
        {
         OFFSET 0.000000 -24.004700 0.000000
         CHANNELS 3 Yrotation Xrotation Zrotation
         End Site
         {
          OFFSET 0.000000 -17.728500 0.000000
         }
        }
       }
      }
     }
    }
   }
  }
 }
 JOINT RightHip
 {
  OFFSET -7.771700 -0.012900 -0.001300
  CHANNELS 3 Yrotation Xrotation Zrotation
  JOINT RightKnee
  {
   OFFSET 0.000000 -40.869800 0.001200
   CHANNELS 3 Yrotation Xrotation Zrotation
   JOINT RightAnkle
   {
    OFFSET 0.000000 -39.717900 0.002100
    CHANNELS 3 Yrotation Xrotation Zrotation
    JOINT RightToe
    {
     OFFSET 0.000000 -4.965400 11.033500
     CHANNELS 3 Yrotation Xrotation Zrotation
     End Site
     {
      OFFSET 0.000000 -1.423100 5.872300
     }
    }
   }
  }
 }
 JOINT LeftHip
 {
  OFFSET 7.771700 -0.012900 -0.001300
  CHANNELS 3 Yrotation Xrotation Zrotation
  JOINT LeftKnee
  {
   OFFSET 0.000000 -40.869800 0.001200
   CHANNELS 3 Yrotation Xrotation Zrotation
   JOINT LeftAnkle
   {
    OFFSET 0.000000 -39.717900 0.002100
    CHANNELS 3 Yrotation Xrotation Zrotation
    JOINT LeftToe
    {
     OFFSET 0.000000 -4.965400 11.033500
     CHANNELS 3 Yrotation Xrotation Zrotation
     End Site
     {
      OFFSET 0.000000 -1.423100 5.872300
     }
    }
   }
  }
 }
}
MOTION
Frames: 9
Frame Time: 0.008333
-193.404061 58.071203 28.748338 172.322529 -50.336278 -3.446875 5.295129 22.433625 3.323334 2.801486 12.845474 1.709329 3.580133 16.051468 2.251433 2.794854 12.861962 1.709084 0.955028 15.804848 3.698666 0.445124 -6.398366 6.544433 1.399149 4.018394 0.766310 1.959305 -13.987693 -10.418207 -76.027637 -66.550724 115.496068 5.446574 15.479391 -11.913852 -10.128246 1.093937 -1.082584 1.326537 -10.129486 15.047393 57.507331 -56.408678 -103.215386 0.616490 -4.230378 -0.430819 4.005536 -22.045038 0.185455 -37.693537 72.958752 -39.220840 5.772817 -12.480668 9.572771 0.039766 -0.110053 0.064639 -2.763247 -20.727510 11.722965 52.503868 79.414080 51.819845 4.566161 -15.810709 -16.319645 0.030415 0.103395 0.025183
-193.407747 58.072791 28.747201 172.337801 -50.347117 -3.449187 5.288277 22.437625 3.316518 2.798495 12.847549 1.711405 3.579151 16.050688 2.251536 2.796922 12.850515 1.708766 0.951797 15.822100 3.700392 0.446382 -6.395416 6.545015 1.407469 4.020513 0.761868 1.961640 -13.980761 -10.413719 -76.022164 -66.550215 115.481140 5.453952 15.484714 -11.892736 -10.129472 1.097188 -1.076640 1.340871 -10.126855 15.038874 57.489173 -56.403772 -103.207340 0.616011 -4.220641 -0.436109 4.003383 -22.031583 0.176955 -37.679574 72.967033 -39.217620 5.777329 -12.486652 9.580325 0.023556 -0.121007 0.046350 -2.756314 -20.718669 11.712976 52.486532 79.416256 51.804897 4.560824 -15.810247 -16.312726 0.030853 0.102649 0.022737
-193.410558 58.073255 28.746745 172.344353 -50.350785 -3.450077 5.285831 22.435526 3.317351 2.798875 12.847148 1.710402 3.575017 16.055205 2.250853 2.800719 12.844282 1.709187 0.950854 15.827554 3.701548 0.448581 -6.382309 6.545457 1.414016 4.017551 0.757790 1.960884 -13.976297 -10.410062 -76.018539 -66.549898 115.472639 5.455654 15.485304 -11.887188 -10.132147 1.093019 -1.068291 1.352319 -10.125142 15.026566 57.472822 -56.408337 -103.184934 0.620462 -4.217562 -0.447051 4.016138 -22.027708 0.173264 -37.711689 72.968738 -39.241344 5.761872 -12.490761 9.572882 0.031414 -0.123082 0.051657 -2.747704 -20.718755 11.708208 52.483943 79.417399 51.805954 4.556762 -15.807590 -16.306892 0.032604 0.099929 0.021826
-193.412452 58.073641 28.746078 172.346156 -50.355305 -3.451933 5.289935 22.433707 3.321439 2.800208 12.845282 1.712113 3.573918 16.055916 2.250897 2.800430 12.842678 1.711019 0.949651 15.833726 3.700342 0.446673 -6.372646 6.546236 1.413161 4.022333 0.756699 1.959881 -13.975076 -10.409119 -76.021481 -66.557106 115.498332 5.442568 15.486843 -11.908686 -10.130320 1.085448 -1.064515 1.369339 -10.124049 15.019287 57.449438 -56.413700 -103.174166 0.623635 -4.216001 -0.457450 4.038699 -22.023912 0.174768 -37.761760 72.967272 -39.276473 5.753398 -12.494708 9.570767 0.039436 -0.125498 0.052401 -2.739480 -20.714898 11.705198 52.485377 79.413662 51.811689 4.555772 -15.808740 -16.303228 0.031414 0.101953 0.019762
-193.413963 58.073507 28.745494 172.345286 -50.357392 -3.453209 5.295476 22.430136 3.327864 2.799733 12.846211 1.711091 3.574609 16.052432 2.253714 2.799179 12.840632 1.710166 0.952583 15.838061 3.698760 0.442091 -6.360928 6.546770 1.420806 4.012508 0.750973 1.961064 -13.964483 -10.408415 -76.017524 -66.554055 115.497817 5.434911 15.492379 -11.920578 -10.125594 1.069507 -1.058530 1.364668 -10.100387 15.012501 57.439013 -56.431760 -103.164306 0.622721 -4.234460 -0.469086 4.044007 -22.021766 0.176086 -37.770182 72.968320 -39.281857 5.755237 -12.498753 9.565973 0.040005 -0.126666 0.050673 -2.732685 -20.713620 11.708190 52.481061 79.413612 51.809544 4.548550 -15.810602 -16.299877 0.036780 0.102248 0.019807
-193.416041 58.073486 28.744335 172.356783 -50.361792 -3.459163 5.294159 22.430802 3.328121 2.798508 12.843749 1.711543 3.578580 16.041910 2.255451 2.792077 12.851658 1.712840 0.951842 15.842637 3.698574 0.445003 -6.351189 6.541747 1.430494 4.004310 0.743072 1.961470 -13.962495 -10.409225 -76.002534 -66.546558 115.482356 5.433284 15.493545 -11.911202 -10.127062 1.070700 -1.057827 1.373051 -10.107209 15.008709 57.425892 -56.435858 -103.155309 0.626137 -4.231871 -0.473661 4.042564 -22.016936 0.172393 -37.775264 72.977117 -39.286191 5.750891 -12.506189 9.563778 0.040486 -0.128883 0.047702 -2.733752 -20.710111 11.706691 52.483822 79.413995 51.812083 4.539694 -15.813246 -16.295831 0.042760 0.102585 0.020609
-193.417173 58.072964 28.743581 172.363489 -50.363774 -3.466251 5.297127 22.426412 3.331821 2.798788 12.842727 1.713618 3.577461 16.042035 2.256101 2.788908 12.852022 1.715086 0.953130 15.843975 3.697532 0.445523 -6.337456 6.540426 1.450693 3.983027 0.729899 1.937865 -13.937388 -10.394139 -75.999872 -66.547179 115.484084 5.439446 15.494597 -11.889693 -10.125000 1.059283 -1.056030 1.383452 -10.110141 15.002588 57.393489 -56.426350 -103.131586 0.617498 -4.234714 -0.483799 4.048714 -22.017804 0.167759 -37.783494 72.986590 -39.286053 5.753192 -12.506539 9.564907 0.037180 -0.135954 0.039591 -2.732232 -20.710468 11.710102 52.483013 79.416456 51.813574 4.545151 -15.812298 -16.298177 0.042399 0.102453 0.024128
-193.422623 58.072206 28.742006 172.355906 -50.367259 -3.434905 5.296887 22.428773 3.307434 2.796075 12.843690 1.713378 3.578643 16.039994 2.255426 2.791636 12.848925 1.715149 0.954708 15.851126 3.691178 0.445892 -6.316693 6.540568 1.455237 3.979791 0.725912 1.939999 -13.936340 -10.393415 -75.993953 -66.542453 115.467063 5.439685 15.499516 -11.877154 -10.123111 1.040855 -1.046455 1.380953 -10.089307 14.995055 57.400682 -56.419531 -103.126572 0.615806 -4.229189 -0.498166 4.065237 -22.014735 0.139130 -37.797022 72.991040 -39.298048 5.746283 -12.483189 9.553101 0.050310 -0.162672 0.049217 -2.712161 -20.711072 11.686846 52.481429 79.421001 51.813209 4.522151 -15.831061 -16.300520 0.065416 0.114467 0.034172
-193.419414 58.070839 28.742833 172.366770 -50.363677 -3.469930 5.303871 22.420725 3.339253 2.794354 12.844296 1.711745 3.577747 16.040471 2.255085 2.794340 12.844351 1.711678 0.953382 15.856746 3.693151 0.451344 -6.301728 6.534118 1.461499 3.974414 0.723799 1.941455 -13.933155 -10.392567 -75.995963 -66.546802 115.472097 5.434228 15.504732 -11.867311 -10.121165 1.036847 -1.041274 1.379817 -10.083900 14.993264 57.405805 -56.419705 -103.132483 0.620228 -4.223490 -0.499069 4.049803 -22.022189 0.166252 -37.796804 72.995291 -39.295241 5.755910 -12.510254 9.550546 0.034396 -0.139181 0.044754 -2.722804 -20.715152 11.715346 52.458177 79.424279 51.795202 4.529750 -15.811788 -16.293387 0.046961 0.100712 0.025660
